<svg xmlns="http://www.w3.org/2000/svg" width="334.966" height="319.298" viewBox="0 0 334.96637 319.29806"><path d="M17.25 319.298c36.4-38.927 49.502-49.896 76.424-76.606.934-9.278-11.65-20.415-15.675-16.093C48.003 257.533 22.082 275.918 0 301.202c.566 6.93 12.378 17.38 17.25 18.096zm195.741-75.117c19.723-.335 39.311-5.87 57.302-15.043 21.644-11.964 40.609-30.399 53.632-51.466 20.47-49.508 12.264-97.525-22.84-132.355-13.241-13.682-31.573-27.976-51.759-35.834C232.984 2.68 217.2-.842 198.68.172c-13.241 1.927-24.862 2.529-36.302 9.775-13.726 4.627-27.012 15.103-35.1 23.06-5.79 4.835-12.097 11.58-17.55 18.571-8.693 14.57-15.186 27.854-19.789 44.432-2.998 16.003-2.21 34.479.755 48.052 1.68 10.09 5.486 18.231 6.995 27.045 4.155 4.774 5.229 14.072 4.359 14.383-5.623 1.556-1.603 12.557.793 13.21-1.608 3.497-10.532 6.937-5.564 10.65 6.81 5.938 13.202 16.59 19.265 16.603 3.677 3.757 9.891-4.635 11.747-.052 6.949 6.853 12.073-4.95 19.414 2.685 13.493 6.136 30.546 11.77 44.827 13.72 5.89 1.094 12.647 1.667 20.462 1.875zm-71.65-46.303c-18.383-17.175-32.558-39.026-39.555-64.386-2.759-12.673-.74-23.527 3.81-38.649 1.552-10.113 7.19-19.744 9.192-26.078 4.854-6.507 5.62-11.144 9.803-14.967 6.394-7.547 13.546-13.29 21.706-18.808 7.733-7.767 22.63-13.98 34.324-17.747 15.269-4.12 38.24-6.386 55.605.938 7.311 1.686 13.588 6.43 20.768 8.617 4.408 2.922 8.514 5.492 13.767 8.735 6.51 5.019 14.874 11.164 20.262 17.815 7.652 7.396 15.032 17.434 19.845 28.398 10.014 18.53 13.565 41.32 8.57 64.389-.867 8.606 1.278 5.107-11.22 26.492-24.166 42.18-43.026 40.29-64.352 51.235-32.112 14.01-75.122-3.867-102.525-25.984zm-10.58-147.707c-.174-1.411-.532.01 0 0zm1.863-2.448c-.648-.669-.648.669 0 0zm3.2-3.675c-.578-.736-.578.736 0 0zm1.648-.714c-.674-1.29-.478.092 0 0zM240.974 19.76c-.512-.831-.808.107 0 0zm-61.8 203.234c.368-.335 1.523.512 0 0zM89.026 130.49c.744.208-.68 1.347 0 0zM328.743 89.67c1.527.687-.014.516 0 0zM307.21 74.862c-.647-2.865 1.013 1.543 0 0zM147.385 33.46c2-.847-.454.915 0 0zm115.64-3.067c1.342-.265.02.801 0 0zm-11.184-5.765c.026-.813 1.342.87 0 0zm-9.12-17.365c1.805.54-.152.75 0 0zm-51.51.148c.878-.34.064.567 0 0zm-87.487 230.983c18.785-10.44-11.808-32.117-17.09-23.727-6.875 10.918 12.173 24.146 17.09 23.727zm30.413-9.345c.396-.847-.9.116 0 0zm3.692-1.476c-.357-.81-.526.794 0 0zm-37.978-28.8c-.208-1.732-.176 1.61 0 0zm.873-13.512c-.926-.377-.07.722 0 0zm163.05-169.257c-.072-.983-.482.578 0 0zm-3.26-2.144c.225-.924-.814.075 0 0zm-3.64-2.637c2.033-.12-.913-.508 0 0z" fill="red"/></svg>