<svg width="100" height="95" xmlns="http://www.w3.org/2000/svg"><path d="m5 95c11-11 15-15 23-23 0-2-4-6-5-4-9 9-16 14-23 22 0 2 4 5 5 5Zm59-22c5 0 11-2 17-5 6-3 12-9 16-15 6-15 3-29-7-39-4-5-10-9-16-11-4-2-9-3-15-3-4 1-7 1-11 3-4 1-8 4-10 7-2 1-4 3-5 5-3 5-5 9-6 14-1 4-1 10 0 14 1 3 2 5 2 8 1 2 2 4 1 4-1 1 0 4 1 4-1 1-3 2-2 3 2 2 4 5 6 5 1 2 3-1 3 0 2 2 4-1 6 1 4 2 9 4 13 4 2 1 4 1 7 1Zm-22-14c-5-5-10-12-12-19 0-4 0-7 2-12 0-3 2-6 2-7 2-2 2-4 3-5 2-2 4-4 7-6 2-2 6-4 10-5 4-1 11-2 17 0 2 1 4 2 6 3 1 1 2 2 4 3 2 1 4 3 6 5 2 2 4 5 6 8 3 6 4 13 2 20 0 2 1 1-3 8-7 12-13 12-19 15-10 4-23-1-31-8Zm-3-44c0 0 0 0 0 0Zm1-1c-1 0-1 0 0 0Zm1-1c-1 0-1 0 0 0Zm0 0c0 0 0 0 0 0Zm31-7c0 0 0 0 0 0Zm-19 61c1-1 1 0 0 0Zm-26-28c0 0-1 0 0 0Zm71-12c1 0 0 0 0 0Zm-6-5c0-1 0 1 0 0Zm-48-12c1 0 0 0 0 0Zm35-1c0 0 0 0 0 0Zm-4-2c0 0 1 1 0 0Zm-3-5c1 0 0 0 0 0Zm-15 0c0 0 0 0 0 0Zm-26 69c6-3-4-9-5-7-2 3 3 7 5 7Zm9-3c0 0 0 0 0 0Zm1 0c0 0 0 0 0 0Zm-11-9c0 0 0 1 0 0Zm0-4c0 0 0 1 0 0Zm49-50c0-1 0 0 0 0Zm-1-1c0 0 0 0 0 0Zm-1-1c0 0-1 0 0 0Z" fill="green"/></svg>